<svg xmlns="http://www.w3.org/2000/svg" width="128" height="200" viewBox="0 0 128 200"><rect width="100%" height="100%" fill="#DDDDDD"/><path fill="#999999" d="M30.11 96.025h1.07v6.51h-.62q-.15 0-.24-.05-.1-.04-.19-.16l-3.4-4.34q.03.3.03.55v4h-1.07v-6.51h.64q.08 0 .13.01.06.01.1.03t.08.06q.04.03.09.1l3.41 4.35-.02-.31q-.01-.15-.01-.28zm4.39 1.82q.51 0 .93.17.42.16.72.47t.46.75.16.98q0 .55-.16.99t-.46.75-.72.48-.93.17q-.52 0-.94-.17-.43-.17-.73-.48t-.46-.75-.16-.99q0-.54.16-.98t.46-.75.73-.47q.42-.17.94-.17m0 3.9q.57 0 .85-.38.28-.39.28-1.14t-.28-1.14-.85-.39q-.59 0-.87.4-.28.39-.28 1.13t.28 1.13.87.39m6.7-5.72v6.51h-1.21v-6.51zm2.39 6.51h-1.11v-4.62h.68q.21 0 .28.21l.07.34q.13-.14.26-.25t.28-.19.33-.13q.17-.05.38-.05.43 0 .71.24.29.23.42.62.11-.22.27-.39.17-.16.36-.27.19-.1.41-.15t.44-.05q.38 0 .68.12.3.11.5.34.2.22.31.55.1.32.1.74v2.94h-1.11v-2.94q0-.44-.19-.66-.19-.23-.57-.23-.17 0-.32.06-.14.06-.25.17t-.18.28q-.06.17-.06.38v2.94h-1.11v-2.94q0-.46-.19-.67-.19-.22-.55-.22-.24 0-.45.12t-.39.33zm8.87-1.19v-.78q-.49.02-.81.08-.33.06-.53.16-.2.09-.28.22-.09.12-.09.27 0 .29.17.42.18.13.46.13.34 0 .59-.13.25-.12.49-.37m-2.35-2.43-.2-.35q.8-.73 1.92-.73.4 0 .72.13t.54.37.34.56q.11.33.11.72v2.92h-.5q-.16 0-.25-.05-.08-.04-.13-.19l-.1-.33q-.18.16-.34.28-.17.11-.35.2-.18.08-.38.12-.21.04-.46.04-.29 0-.54-.08-.24-.08-.42-.23-.18-.16-.28-.39-.1-.24-.1-.55 0-.17.06-.35.06-.17.19-.33t.34-.3.52-.24.72-.17q.41-.06.94-.08v-.27q0-.46-.2-.68-.2-.23-.57-.23-.27 0-.45.07-.18.06-.31.14-.14.08-.25.14t-.24.06q-.12 0-.2-.06t-.13-.14m6.16 1.2q.21 0 .36-.06.15-.05.26-.15.1-.1.15-.24t.05-.31q0-.34-.2-.54-.21-.2-.62-.2t-.61.2q-.21.2-.21.54 0 .16.05.3.06.14.16.25.1.1.25.15.16.06.36.06m1.26 2.63q0-.14-.08-.22-.08-.09-.22-.14-.14-.04-.33-.07-.19-.02-.4-.03l-.43-.02q-.22-.01-.43-.04-.19.11-.3.25-.12.14-.12.32 0 .12.06.23.06.1.2.18.13.08.34.12t.52.04.53-.04q.23-.05.38-.14.14-.08.21-.19.07-.12.07-.25m-.22-4.67h1.32v.41q0 .2-.23.25l-.42.07q.1.24.1.53 0 .34-.14.61-.14.28-.38.47-.24.2-.58.3-.33.11-.71.11-.13 0-.26-.01l-.25-.04q-.21.13-.21.29 0 .14.13.21.12.06.34.09.21.03.48.03.27.01.55.03.28.03.55.08.27.06.49.18.21.12.33.33.13.21.13.54 0 .3-.15.59t-.43.52q-.29.22-.71.36-.41.13-.94.13t-.91-.1q-.39-.1-.65-.27-.25-.17-.38-.39-.12-.22-.12-.45 0-.33.19-.55.2-.22.54-.35-.19-.09-.29-.25-.11-.16-.11-.41 0-.11.04-.22t.11-.21q.07-.11.19-.21.11-.1.26-.17-.35-.19-.55-.51-.2-.31-.2-.73 0-.35.14-.62.13-.28.38-.48.25-.19.58-.29.34-.11.73-.11.3 0 .56.06t.48.18m2.9 1.62h2.1q0-.22-.06-.41t-.18-.33q-.12-.15-.31-.23t-.43-.08q-.49 0-.76.27-.28.28-.36.78m2.84.67h-2.86q.03.36.13.62.1.25.26.42t.38.25q.23.09.5.09t.46-.07q.2-.06.34-.13l.26-.14q.11-.07.21-.07.14 0 .21.11l.32.4q-.18.22-.41.36-.23.15-.48.24t-.51.12q-.26.04-.5.04-.48 0-.9-.16-.41-.16-.72-.47-.3-.32-.48-.78t-.18-1.07q0-.47.16-.89.15-.41.44-.72.28-.31.69-.49.42-.18.93-.18.44 0 .81.14t.63.41q.27.27.42.65.15.39.15.89 0 .26-.05.34-.06.09-.21.09m4.82-.29h2.07l-.79-2.16q-.06-.15-.12-.34l-.13-.43q-.06.23-.12.43t-.12.35zm1.65-4.05 2.56 6.51h-.94q-.15 0-.25-.08t-.15-.19l-.49-1.33h-2.69l-.49 1.33q-.03.1-.14.18-.1.09-.25.09h-.95l2.56-6.51zm6.34 1.89h.88l-1.83 4.62H73.9l-1.83-4.62h.92q.13 0 .21.06t.11.15l.89 2.47q.07.21.13.42.05.21.09.41.05-.2.1-.41t.13-.42l.91-2.47q.03-.09.11-.15t.19-.06m3.91 3.43v-.78q-.48.02-.81.08t-.53.16q-.19.09-.28.22-.08.12-.08.27 0 .29.17.42t.45.13q.34 0 .59-.13.25-.12.49-.37m-2.35-2.43-.2-.35q.8-.73 1.92-.73.41 0 .73.13.31.13.54.37.22.24.33.56.12.33.12.72v2.92h-.51q-.16 0-.24-.05-.09-.04-.14-.19l-.1-.33q-.17.16-.34.28-.16.11-.34.2-.18.08-.39.12-.2.04-.45.04-.29 0-.54-.08t-.43-.23q-.18-.16-.28-.39-.1-.24-.1-.55 0-.17.06-.35.06-.17.19-.33.14-.16.35-.3t.52-.24.71-.17q.41-.06.94-.08v-.27q0-.46-.2-.68-.2-.23-.57-.23-.27 0-.45.07-.17.06-.31.14-.13.08-.24.14t-.25.06q-.12 0-.2-.06t-.13-.14m4.52-1h1.11v4.62h-1.11zm1.26-1.34q0 .14-.05.27-.06.12-.16.22-.1.09-.23.15-.13.05-.28.05-.14 0-.27-.05-.13-.06-.22-.15-.1-.1-.15-.22-.06-.13-.06-.27 0-.15.06-.28.05-.13.15-.23.09-.09.22-.15.13-.05.27-.05.15 0 .28.05.13.06.23.15.1.1.16.23.05.13.05.28m1-.73h1.11v6.69H84.2zm4.66 5.5v-.78q-.48.02-.81.08t-.53.16q-.19.09-.28.22-.08.12-.08.27 0 .29.17.42t.45.13q.34 0 .59-.13.25-.12.49-.37m-2.35-2.43-.2-.35q.8-.73 1.92-.73.41 0 .73.13.31.13.54.37.22.24.33.56.12.33.12.72v2.92h-.51q-.16 0-.24-.05-.09-.04-.14-.19l-.1-.33q-.17.16-.34.28-.16.11-.34.2-.18.08-.39.12-.2.04-.45.04-.29 0-.54-.08t-.43-.23q-.18-.16-.28-.39-.1-.24-.1-.55 0-.17.06-.35.06-.17.19-.33.14-.16.35-.3t.52-.24.71-.17q.41-.06.94-.08v-.27q0-.46-.2-.68-.2-.23-.57-.23-.27 0-.45.07-.17.06-.31.14-.13.08-.24.14t-.25.06q-.12 0-.2-.06t-.13-.14m5.59.35v2.07q.19.23.41.33.23.09.47.09.26 0 .46-.09.21-.09.35-.29.15-.19.22-.5.08-.3.08-.73 0-.76-.25-1.1t-.73-.34q-.32 0-.55.15-.24.15-.46.41m0-3.42v2.64q.28-.29.62-.47.34-.17.78-.17.4 0 .72.16t.55.45q.22.3.35.71.12.42.12.94 0 .57-.14 1.03-.14.45-.4.78t-.62.51q-.37.18-.81.18-.22 0-.4-.05-.17-.04-.32-.11-.15-.08-.27-.19-.13-.11-.24-.25l-.05.31q-.02.12-.09.17-.06.05-.18.05h-.73v-6.69zm4.01 0h1.11v6.69h-1.11zm3.1 3.85h2.1q0-.22-.06-.41t-.19-.33q-.12-.15-.3-.23-.19-.08-.44-.08-.48 0-.76.27-.27.28-.35.78m2.84.67h-2.86q.03.36.12.62.1.25.27.42.16.17.38.25.22.09.49.09t.47-.07q.19-.06.34-.13l.26-.14q.11-.07.21-.07.14 0 .21.11l.32.4q-.19.22-.42.36-.23.15-.48.24t-.5.12q-.26.04-.51.04-.48 0-.89-.16-.42-.16-.72-.47-.31-.32-.48-.78-.18-.46-.18-1.07 0-.47.15-.89.16-.41.44-.72.29-.31.7-.49t.93-.18q.44 0 .81.14.36.14.63.41t.42.65q.15.39.15.89 0 .26-.06.34-.05.09-.2.09"/></svg>